<svg width="375" height="370" viewBox="0 0 350 325" fill="none" xmlns="http://www.w3.org/2000/svg">
<path d="M177 370L-18 106L133 21.5L177 370Z" fill="url(#paint0_linear_0_1)" fill-opacity="0.1"/>
<path d="M187.795 321.437L146 -5.86767e-06L248.5 -5.3824e-06L187.795 321.437Z" fill="url(#paint1_linear_0_1)" fill-opacity="0.1"/>
<circle cx="334.5" cy="259.5" r="15.5" fill="url(#paint2_linear_0_1)"/>
<circle cx="36.5" cy="313.5" r="20.5" fill="url(#paint3_linear_0_1)"/>
<circle cx="63" cy="151" r="7" fill="url(#paint4_linear_0_1)"/>
<circle cx="323.5" cy="170.5" r="4.5" fill="url(#paint5_linear_0_1)"/>
<path d="M218.809 329.033L265.418 4.15055L432.254 50.0535L218.809 329.033Z" fill="url(#paint6_linear_0_1)" fill-opacity="0.1"/>
<defs>
<linearGradient id="paint0_linear_0_1" x1="76.5" y1="112" x2="110.5" y2="216" gradientUnits="userSpaceOnUse">
<stop stop-color="#3D3F3E"/>
<stop offset="1" stop-color="#FFF2E4"/>
</linearGradient>
<linearGradient id="paint1_linear_0_1" x1="201.527" y1="73.1314" x2="199.525" y2="171.476" gradientUnits="userSpaceOnUse">
<stop stop-color="#3D3F3E"/>
<stop offset="1" stop-color="#FFF2E4"/>
</linearGradient>
<linearGradient id="paint2_linear_0_1" x1="325" y1="244" x2="334.5" y2="275" gradientUnits="userSpaceOnUse">
<stop stop-color="#A2F6C9"/>
<stop offset="1" stop-color="#48DD8E"/>
</linearGradient>
<linearGradient id="paint3_linear_0_1" x1="23.9355" y1="293" x2="36.5" y2="334" gradientUnits="userSpaceOnUse">
<stop stop-color="#A9F6A2"/>
<stop offset="1" stop-color="#FFCF86"/>
</linearGradient>
<linearGradient id="paint4_linear_0_1" x1="58.7097" y1="144" x2="63" y2="158" gradientUnits="userSpaceOnUse">
<stop stop-color="#F6DEA2"/>
<stop offset="1" stop-color="#FBAF9C"/>
</linearGradient>
<linearGradient id="paint5_linear_0_1" x1="320.742" y1="166" x2="323.5" y2="175" gradientUnits="userSpaceOnUse">
<stop stop-color="#F6DEA2"/>
<stop offset="1" stop-color="#FBAF9C"/>
</linearGradient>
<linearGradient id="paint6_linear_0_1" x1="328.473" y1="74.7928" x2="279.632" y2="172.704" gradientUnits="userSpaceOnUse">
<stop stop-color="#3D3F3E"/>
<stop offset="1" stop-color="#FFF2E4"/>
</linearGradient>
</defs>
</svg>
